# Cornell-Box (555 x 555 x 555), vorne (z = 555) offen
# Rueckwand z = 0, rote Wand links (x = 0), gruene Wand rechts (x = 555)
mtllib cornell_box.mtl
v 0.0000 0.0000 0.0000
v 0.0000 0.0000 555.0000
v 555.0000 0.0000 555.0000
v 555.0000 0.0000 0.0000
v 0.0000 555.0000 0.0000
v 555.0000 555.0000 0.0000
v 555.0000 555.0000 555.0000
v 0.0000 555.0000 555.0000
v 0.0000 0.0000 0.0000
v 555.0000 0.0000 0.0000
v 555.0000 555.0000 0.0000
v 0.0000 555.0000 0.0000
v 0.0000 0.0000 0.0000
v 0.0000 555.0000 0.0000
v 0.0000 555.0000 555.0000
v 0.0000 0.0000 555.0000
v 555.0000 0.0000 0.0000
v 555.0000 0.0000 555.0000
v 555.0000 555.0000 555.0000
v 555.0000 555.0000 0.0000
v 213.0000 554.5000 227.0000
v 343.0000 554.5000 227.0000
v 343.0000 554.5000 332.0000
v 213.0000 554.5000 332.0000
v 55.0999 0.0000 169.7400
v 190.2600 0.0000 75.0999
v 284.9001 0.0000 210.2600
v 149.7400 0.0000 304.9001
v 55.0999 330.0000 169.7400
v 149.7400 330.0000 304.9001
v 284.9001 330.0000 210.2600
v 190.2600 330.0000 75.0999
v 55.0999 0.0000 169.7400
v 55.0999 330.0000 169.7400
v 190.2600 330.0000 75.0999
v 190.2600 0.0000 75.0999
v 190.2600 0.0000 75.0999
v 190.2600 330.0000 75.0999
v 284.9001 330.0000 210.2600
v 284.9001 0.0000 210.2600
v 284.9001 0.0000 210.2600
v 284.9001 330.0000 210.2600
v 149.7400 330.0000 304.9001
v 149.7400 0.0000 304.9001
v 149.7400 0.0000 304.9001
v 149.7400 330.0000 304.9001
v 55.0999 330.0000 169.7400
v 55.0999 0.0000 169.7400
v 114.1397 0.0000 323.0972
v 226.9028 0.0000 364.1397
v 185.8603 0.0000 476.9028
v 73.0972 0.0000 435.8603
v 114.1397 120.0000 323.0972
v 73.0972 120.0000 435.8603
v 185.8603 120.0000 476.9028
v 226.9028 120.0000 364.1397
v 114.1397 0.0000 323.0972
v 114.1397 120.0000 323.0972
v 226.9028 120.0000 364.1397
v 226.9028 0.0000 364.1397
v 226.9028 0.0000 364.1397
v 226.9028 120.0000 364.1397
v 185.8603 120.0000 476.9028
v 185.8603 0.0000 476.9028
v 185.8603 0.0000 476.9028
v 185.8603 120.0000 476.9028
v 73.0972 120.0000 435.8603
v 73.0972 0.0000 435.8603
v 73.0972 0.0000 435.8603
v 73.0972 120.0000 435.8603
v 114.1397 120.0000 323.0972
v 114.1397 0.0000 323.0972
v 400.0000 190.0000 330.0000
v 400.0000 190.0000 330.0000
v 400.0000 190.0000 330.0000
v 400.0000 190.0000 330.0000
v 400.0000 190.0000 330.0000
v 400.0000 190.0000 330.0000
v 400.0000 190.0000 330.0000
v 400.0000 190.0000 330.0000
v 400.0000 190.0000 330.0000
v 400.0000 190.0000 330.0000
v 400.0000 190.0000 330.0000
v 400.0000 190.0000 330.0000
v 400.0000 190.0000 330.0000
v 400.0000 190.0000 330.0000
v 400.0000 190.0000 330.0000
v 400.0000 190.0000 330.0000
v 400.0000 190.0000 330.0000
v 400.0000 190.0000 330.0000
v 400.0000 190.0000 330.0000
v 400.0000 190.0000 330.0000
v 400.0000 190.0000 330.0000
v 400.0000 190.0000 330.0000
v 400.0000 190.0000 330.0000
v 400.0000 190.0000 330.0000
v 400.0000 190.0000 330.0000
v 400.0000 190.0000 330.0000
v 400.0000 190.0000 330.0000
v 400.0000 190.0000 330.0000
v 418.5336 188.1746 330.0000
v 418.0689 188.1746 334.1241
v 416.6982 188.1746 338.0414
v 414.4901 188.1746 341.5555
v 411.5555 188.1746 344.4901
v 408.0414 188.1746 346.6982
v 404.1241 188.1746 348.0689
v 400.0000 188.1746 348.5336
v 395.8759 188.1746 348.0689
v 391.9586 188.1746 346.6982
v 388.4445 188.1746 344.4901
v 385.5099 188.1746 341.5555
v 383.3018 188.1746 338.0414
v 381.9311 188.1746 334.1241
v 381.4664 188.1746 330.0000
v 381.9311 188.1746 325.8759
v 383.3018 188.1746 321.9586
v 385.5099 188.1746 318.4445
v 388.4445 188.1746 315.5099
v 391.9586 188.1746 313.3018
v 395.8759 188.1746 311.9311
v 400.0000 188.1746 311.4664
v 404.1241 188.1746 311.9311
v 408.0414 188.1746 313.3018
v 411.5555 188.1746 315.5099
v 414.4901 188.1746 318.4445
v 416.6982 188.1746 321.9586
v 418.0689 188.1746 325.8759
v 436.3549 182.7686 330.0000
v 435.4434 182.7686 338.0897
v 432.7547 182.7686 345.7738
v 428.4234 182.7686 352.6669
v 422.6669 182.7686 358.4234
v 415.7738 182.7686 362.7547
v 408.0897 182.7686 365.4434
v 400.0000 182.7686 366.3549
v 391.9103 182.7686 365.4434
v 384.2262 182.7686 362.7547
v 377.3331 182.7686 358.4234
v 371.5766 182.7686 352.6669
v 367.2453 182.7686 345.7738
v 364.5566 182.7686 338.0897
v 363.6451 182.7686 330.0000
v 364.5566 182.7686 321.9103
v 367.2453 182.7686 314.2262
v 371.5766 182.7686 307.3331
v 377.3331 182.7686 301.5766
v 384.2262 182.7686 297.2453
v 391.9103 182.7686 294.5566
v 400.0000 182.7686 293.6451
v 408.0897 182.7686 294.5566
v 415.7738 182.7686 297.2453
v 422.6669 182.7686 301.5766
v 428.4234 182.7686 307.3331
v 432.7547 182.7686 314.2262
v 435.4434 182.7686 321.9103
v 452.7792 173.9896 330.0000
v 451.4559 173.9896 341.7445
v 447.5524 173.9896 352.9000
v 441.2644 173.9896 362.9073
v 432.9073 173.9896 371.2644
v 422.9000 173.9896 377.5524
v 411.7445 173.9896 381.4559
v 400.0000 173.9896 382.7792
v 388.2555 173.9896 381.4559
v 377.1000 173.9896 377.5524
v 367.0927 173.9896 371.2644
v 358.7356 173.9896 362.9073
v 352.4476 173.9896 352.9000
v 348.5441 173.9896 341.7445
v 347.2208 173.9896 330.0000
v 348.5441 173.9896 318.2555
v 352.4476 173.9896 307.1000
v 358.7356 173.9896 297.0927
v 367.0927 173.9896 288.7356
v 377.1000 173.9896 282.4476
v 388.2555 173.9896 278.5441
v 400.0000 173.9896 277.2208
v 411.7445 173.9896 278.5441
v 422.9000 173.9896 282.4476
v 432.9073 173.9896 288.7356
v 441.2644 173.9896 297.0927
v 447.5524 173.9896 307.1000
v 451.4559 173.9896 318.2555
v 467.1751 162.1751 330.0000
v 465.4909 162.1751 344.9479
v 460.5227 162.1751 359.1462
v 452.5196 162.1751 371.8830
v 441.8830 162.1751 382.5196
v 429.1462 162.1751 390.5227
v 414.9479 162.1751 395.4909
v 400.0000 162.1751 397.1751
v 385.0521 162.1751 395.4909
v 370.8538 162.1751 390.5227
v 358.1170 162.1751 382.5196
v 347.4804 162.1751 371.8830
v 339.4773 162.1751 359.1462
v 334.5091 162.1751 344.9479
v 332.8249 162.1751 330.0000
v 334.5091 162.1751 315.0521
v 339.4773 162.1751 300.8538
v 347.4804 162.1751 288.1170
v 358.1170 162.1751 277.4804
v 370.8538 162.1751 269.4773
v 385.0521 162.1751 264.5091
v 400.0000 162.1751 262.8249
v 414.9479 162.1751 264.5091
v 429.1462 162.1751 269.4773
v 441.8830 162.1751 277.4804
v 452.5196 162.1751 288.1170
v 460.5227 162.1751 300.8538
v 465.4909 162.1751 315.0521
v 478.9896 147.7792 330.0000
v 477.0092 147.7792 347.5768
v 471.1672 147.7792 364.2723
v 461.7566 147.7792 379.2492
v 449.2492 147.7792 391.7566
v 434.2723 147.7792 401.1672
v 417.5768 147.7792 407.0092
v 400.0000 147.7792 408.9896
v 382.4232 147.7792 407.0092
v 365.7277 147.7792 401.1672
v 350.7508 147.7792 391.7566
v 338.2434 147.7792 379.2492
v 328.8328 147.7792 364.2723
v 322.9908 147.7792 347.5768
v 321.0104 147.7792 330.0000
v 322.9908 147.7792 312.4232
v 328.8328 147.7792 295.7277
v 338.2434 147.7792 280.7508
v 350.7508 147.7792 268.2434
v 365.7277 147.7792 258.8328
v 382.4232 147.7792 252.9908
v 400.0000 147.7792 251.0104
v 417.5768 147.7792 252.9908
v 434.2723 147.7792 258.8328
v 449.2492 147.7792 268.2434
v 461.7566 147.7792 280.7508
v 471.1672 147.7792 295.7277
v 477.0092 147.7792 312.4232
v 487.7686 131.3549 330.0000
v 485.5680 131.3549 349.5303
v 479.0767 131.3549 368.0813
v 468.6202 131.3549 384.7228
v 454.7228 131.3549 398.6202
v 438.0813 131.3549 409.0767
v 419.5303 131.3549 415.5680
v 400.0000 131.3549 417.7686
v 380.4697 131.3549 415.5680
v 361.9187 131.3549 409.0767
v 345.2772 131.3549 398.6202
v 331.3798 131.3549 384.7228
v 320.9233 131.3549 368.0813
v 314.4320 131.3549 349.5303
v 312.2314 131.3549 330.0000
v 314.4320 131.3549 310.4697
v 320.9233 131.3549 291.9187
v 331.3798 131.3549 275.2772
v 345.2772 131.3549 261.3798
v 361.9187 131.3549 250.9233
v 380.4697 131.3549 244.4320
v 400.0000 131.3549 242.2314
v 419.5303 131.3549 244.4320
v 438.0813 131.3549 250.9233
v 454.7228 131.3549 261.3798
v 468.6202 131.3549 275.2772
v 479.0767 131.3549 291.9187
v 485.5680 131.3549 310.4697
v 493.1746 113.5336 330.0000
v 490.8385 113.5336 350.7333
v 483.9474 113.5336 370.4269
v 472.8468 113.5336 388.0934
v 458.0934 113.5336 402.8468
v 440.4269 113.5336 413.9474
v 420.7333 113.5336 420.8385
v 400.0000 113.5336 423.1746
v 379.2667 113.5336 420.8385
v 359.5731 113.5336 413.9474
v 341.9066 113.5336 402.8468
v 327.1532 113.5336 388.0934
v 316.0526 113.5336 370.4269
v 309.1615 113.5336 350.7333
v 306.8254 113.5336 330.0000
v 309.1615 113.5336 309.2667
v 316.0526 113.5336 289.5731
v 327.1532 113.5336 271.9066
v 341.9066 113.5336 257.1532
v 359.5731 113.5336 246.0526
v 379.2667 113.5336 239.1615
v 400.0000 113.5336 236.8254
v 420.7333 113.5336 239.1615
v 440.4269 113.5336 246.0526
v 458.0934 113.5336 257.1532
v 472.8468 113.5336 271.9066
v 483.9474 113.5336 289.5731
v 490.8385 113.5336 309.2667
v 495.0000 95.0000 330.0000
v 492.6182 95.0000 351.1395
v 485.5920 95.0000 371.2190
v 474.2740 95.0000 389.2315
v 459.2315 95.0000 404.2740
v 441.2190 95.0000 415.5920
v 421.1395 95.0000 422.6182
v 400.0000 95.0000 425.0000
v 378.8605 95.0000 422.6182
v 358.7810 95.0000 415.5920
v 340.7685 95.0000 404.2740
v 325.7260 95.0000 389.2315
v 314.4080 95.0000 371.2190
v 307.3818 95.0000 351.1395
v 305.0000 95.0000 330.0000
v 307.3818 95.0000 308.8605
v 314.4080 95.0000 288.7810
v 325.7260 95.0000 270.7685
v 340.7685 95.0000 255.7260
v 358.7810 95.0000 244.4080
v 378.8605 95.0000 237.3818
v 400.0000 95.0000 235.0000
v 421.1395 95.0000 237.3818
v 441.2190 95.0000 244.4080
v 459.2315 95.0000 255.7260
v 474.2740 95.0000 270.7685
v 485.5920 95.0000 288.7810
v 492.6182 95.0000 308.8605
v 493.1746 76.4664 330.0000
v 490.8385 76.4664 350.7333
v 483.9474 76.4664 370.4269
v 472.8468 76.4664 388.0934
v 458.0934 76.4664 402.8468
v 440.4269 76.4664 413.9474
v 420.7333 76.4664 420.8385
v 400.0000 76.4664 423.1746
v 379.2667 76.4664 420.8385
v 359.5731 76.4664 413.9474
v 341.9066 76.4664 402.8468
v 327.1532 76.4664 388.0934
v 316.0526 76.4664 370.4269
v 309.1615 76.4664 350.7333
v 306.8254 76.4664 330.0000
v 309.1615 76.4664 309.2667
v 316.0526 76.4664 289.5731
v 327.1532 76.4664 271.9066
v 341.9066 76.4664 257.1532
v 359.5731 76.4664 246.0526
v 379.2667 76.4664 239.1615
v 400.0000 76.4664 236.8254
v 420.7333 76.4664 239.1615
v 440.4269 76.4664 246.0526
v 458.0934 76.4664 257.1532
v 472.8468 76.4664 271.9066
v 483.9474 76.4664 289.5731
v 490.8385 76.4664 309.2667
v 487.7686 58.6451 330.0000
v 485.5680 58.6451 349.5303
v 479.0767 58.6451 368.0813
v 468.6202 58.6451 384.7228
v 454.7228 58.6451 398.6202
v 438.0813 58.6451 409.0767
v 419.5303 58.6451 415.5680
v 400.0000 58.6451 417.7686
v 380.4697 58.6451 415.5680
v 361.9187 58.6451 409.0767
v 345.2772 58.6451 398.6202
v 331.3798 58.6451 384.7228
v 320.9233 58.6451 368.0813
v 314.4320 58.6451 349.5303
v 312.2314 58.6451 330.0000
v 314.4320 58.6451 310.4697
v 320.9233 58.6451 291.9187
v 331.3798 58.6451 275.2772
v 345.2772 58.6451 261.3798
v 361.9187 58.6451 250.9233
v 380.4697 58.6451 244.4320
v 400.0000 58.6451 242.2314
v 419.5303 58.6451 244.4320
v 438.0813 58.6451 250.9233
v 454.7228 58.6451 261.3798
v 468.6202 58.6451 275.2772
v 479.0767 58.6451 291.9187
v 485.5680 58.6451 310.4697
v 478.9896 42.2208 330.0000
v 477.0092 42.2208 347.5768
v 471.1672 42.2208 364.2723
v 461.7566 42.2208 379.2492
v 449.2492 42.2208 391.7566
v 434.2723 42.2208 401.1672
v 417.5768 42.2208 407.0092
v 400.0000 42.2208 408.9896
v 382.4232 42.2208 407.0092
v 365.7277 42.2208 401.1672
v 350.7508 42.2208 391.7566
v 338.2434 42.2208 379.2492
v 328.8328 42.2208 364.2723
v 322.9908 42.2208 347.5768
v 321.0104 42.2208 330.0000
v 322.9908 42.2208 312.4232
v 328.8328 42.2208 295.7277
v 338.2434 42.2208 280.7508
v 350.7508 42.2208 268.2434
v 365.7277 42.2208 258.8328
v 382.4232 42.2208 252.9908
v 400.0000 42.2208 251.0104
v 417.5768 42.2208 252.9908
v 434.2723 42.2208 258.8328
v 449.2492 42.2208 268.2434
v 461.7566 42.2208 280.7508
v 471.1672 42.2208 295.7277
v 477.0092 42.2208 312.4232
v 467.1751 27.8249 330.0000
v 465.4909 27.8249 344.9479
v 460.5227 27.8249 359.1462
v 452.5196 27.8249 371.8830
v 441.8830 27.8249 382.5196
v 429.1462 27.8249 390.5227
v 414.9479 27.8249 395.4909
v 400.0000 27.8249 397.1751
v 385.0521 27.8249 395.4909
v 370.8538 27.8249 390.5227
v 358.1170 27.8249 382.5196
v 347.4804 27.8249 371.8830
v 339.4773 27.8249 359.1462
v 334.5091 27.8249 344.9479
v 332.8249 27.8249 330.0000
v 334.5091 27.8249 315.0521
v 339.4773 27.8249 300.8538
v 347.4804 27.8249 288.1170
v 358.1170 27.8249 277.4804
v 370.8538 27.8249 269.4773
v 385.0521 27.8249 264.5091
v 400.0000 27.8249 262.8249
v 414.9479 27.8249 264.5091
v 429.1462 27.8249 269.4773
v 441.8830 27.8249 277.4804
v 452.5196 27.8249 288.1170
v 460.5227 27.8249 300.8538
v 465.4909 27.8249 315.0521
v 452.7792 16.0104 330.0000
v 451.4559 16.0104 341.7445
v 447.5524 16.0104 352.9000
v 441.2644 16.0104 362.9073
v 432.9073 16.0104 371.2644
v 422.9000 16.0104 377.5524
v 411.7445 16.0104 381.4559
v 400.0000 16.0104 382.7792
v 388.2555 16.0104 381.4559
v 377.1000 16.0104 377.5524
v 367.0927 16.0104 371.2644
v 358.7356 16.0104 362.9073
v 352.4476 16.0104 352.9000
v 348.5441 16.0104 341.7445
v 347.2208 16.0104 330.0000
v 348.5441 16.0104 318.2555
v 352.4476 16.0104 307.1000
v 358.7356 16.0104 297.0927
v 367.0927 16.0104 288.7356
v 377.1000 16.0104 282.4476
v 388.2555 16.0104 278.5441
v 400.0000 16.0104 277.2208
v 411.7445 16.0104 278.5441
v 422.9000 16.0104 282.4476
v 432.9073 16.0104 288.7356
v 441.2644 16.0104 297.0927
v 447.5524 16.0104 307.1000
v 451.4559 16.0104 318.2555
v 436.3549 7.2314 330.0000
v 435.4434 7.2314 338.0897
v 432.7547 7.2314 345.7738
v 428.4234 7.2314 352.6669
v 422.6669 7.2314 358.4234
v 415.7738 7.2314 362.7547
v 408.0897 7.2314 365.4434
v 400.0000 7.2314 366.3549
v 391.9103 7.2314 365.4434
v 384.2262 7.2314 362.7547
v 377.3331 7.2314 358.4234
v 371.5766 7.2314 352.6669
v 367.2453 7.2314 345.7738
v 364.5566 7.2314 338.0897
v 363.6451 7.2314 330.0000
v 364.5566 7.2314 321.9103
v 367.2453 7.2314 314.2262
v 371.5766 7.2314 307.3331
v 377.3331 7.2314 301.5766
v 384.2262 7.2314 297.2453
v 391.9103 7.2314 294.5566
v 400.0000 7.2314 293.6451
v 408.0897 7.2314 294.5566
v 415.7738 7.2314 297.2453
v 422.6669 7.2314 301.5766
v 428.4234 7.2314 307.3331
v 432.7547 7.2314 314.2262
v 435.4434 7.2314 321.9103
v 418.5336 1.8254 330.0000
v 418.0689 1.8254 334.1241
v 416.6982 1.8254 338.0414
v 414.4901 1.8254 341.5555
v 411.5555 1.8254 344.4901
v 408.0414 1.8254 346.6982
v 404.1241 1.8254 348.0689
v 400.0000 1.8254 348.5336
v 395.8759 1.8254 348.0689
v 391.9586 1.8254 346.6982
v 388.4445 1.8254 344.4901
v 385.5099 1.8254 341.5555
v 383.3018 1.8254 338.0414
v 381.9311 1.8254 334.1241
v 381.4664 1.8254 330.0000
v 381.9311 1.8254 325.8759
v 383.3018 1.8254 321.9586
v 385.5099 1.8254 318.4445
v 388.4445 1.8254 315.5099
v 391.9586 1.8254 313.3018
v 395.8759 1.8254 311.9311
v 400.0000 1.8254 311.4664
v 404.1241 1.8254 311.9311
v 408.0414 1.8254 313.3018
v 411.5555 1.8254 315.5099
v 414.4901 1.8254 318.4445
v 416.6982 1.8254 321.9586
v 418.0689 1.8254 325.8759
v 400.0000 0.0000 330.0000
v 400.0000 0.0000 330.0000
v 400.0000 0.0000 330.0000
v 400.0000 0.0000 330.0000
v 400.0000 0.0000 330.0000
v 400.0000 0.0000 330.0000
v 400.0000 0.0000 330.0000
v 400.0000 0.0000 330.0000
v 400.0000 0.0000 330.0000
v 400.0000 0.0000 330.0000
v 400.0000 0.0000 330.0000
v 400.0000 0.0000 330.0000
v 400.0000 0.0000 330.0000
v 400.0000 0.0000 330.0000
v 400.0000 0.0000 330.0000
v 400.0000 0.0000 330.0000
v 400.0000 0.0000 330.0000
v 400.0000 0.0000 330.0000
v 400.0000 0.0000 330.0000
v 400.0000 0.0000 330.0000
v 400.0000 0.0000 330.0000
v 400.0000 0.0000 330.0000
v 400.0000 0.0000 330.0000
v 400.0000 0.0000 330.0000
v 400.0000 0.0000 330.0000
v 400.0000 0.0000 330.0000
v 400.0000 0.0000 330.0000
v 400.0000 0.0000 330.0000
vn 0.00000 1.00000 0.00000
vn 0.00000 1.00000 0.00000
vn 0.00000 1.00000 0.00000
vn 0.00000 1.00000 0.00000
vn 0.00000 1.00000 0.00000
vn 0.00000 1.00000 0.00000
vn 0.00000 1.00000 0.00000
vn 0.00000 1.00000 0.00000
vn -0.00000 1.00000 0.00000
vn -0.00000 1.00000 0.00000
vn -0.00000 1.00000 0.00000
vn -0.00000 1.00000 0.00000
vn -0.00000 1.00000 0.00000
vn -0.00000 1.00000 0.00000
vn -0.00000 1.00000 0.00000
vn -0.00000 1.00000 -0.00000
vn -0.00000 1.00000 -0.00000
vn -0.00000 1.00000 -0.00000
vn -0.00000 1.00000 -0.00000
vn -0.00000 1.00000 -0.00000
vn -0.00000 1.00000 -0.00000
vn -0.00000 1.00000 -0.00000
vn 0.00000 1.00000 -0.00000
vn 0.00000 1.00000 -0.00000
vn 0.00000 1.00000 -0.00000
vn 0.00000 1.00000 -0.00000
vn 0.00000 1.00000 -0.00000
vn 0.00000 1.00000 -0.00000
vn 0.19509 0.98079 0.00000
vn 0.19020 0.98079 0.04341
vn 0.17577 0.98079 0.08465
vn 0.15253 0.98079 0.12164
vn 0.12164 0.98079 0.15253
vn 0.08465 0.98079 0.17577
vn 0.04341 0.98079 0.19020
vn 0.00000 0.98079 0.19509
vn -0.04341 0.98079 0.19020
vn -0.08465 0.98079 0.17577
vn -0.12164 0.98079 0.15253
vn -0.15253 0.98079 0.12164
vn -0.17577 0.98079 0.08465
vn -0.19020 0.98079 0.04341
vn -0.19509 0.98079 0.00000
vn -0.19020 0.98079 -0.04341
vn -0.17577 0.98079 -0.08465
vn -0.15253 0.98079 -0.12164
vn -0.12164 0.98079 -0.15253
vn -0.08465 0.98079 -0.17577
vn -0.04341 0.98079 -0.19020
vn -0.00000 0.98079 -0.19509
vn 0.04341 0.98079 -0.19020
vn 0.08465 0.98079 -0.17577
vn 0.12164 0.98079 -0.15253
vn 0.15253 0.98079 -0.12164
vn 0.17577 0.98079 -0.08465
vn 0.19020 0.98079 -0.04341
vn 0.38268 0.92388 0.00000
vn 0.37309 0.92388 0.08516
vn 0.34479 0.92388 0.16604
vn 0.29919 0.92388 0.23860
vn 0.23860 0.92388 0.29919
vn 0.16604 0.92388 0.34479
vn 0.08516 0.92388 0.37309
vn 0.00000 0.92388 0.38268
vn -0.08516 0.92388 0.37309
vn -0.16604 0.92388 0.34479
vn -0.23860 0.92388 0.29919
vn -0.29919 0.92388 0.23860
vn -0.34479 0.92388 0.16604
vn -0.37309 0.92388 0.08516
vn -0.38268 0.92388 0.00000
vn -0.37309 0.92388 -0.08516
vn -0.34479 0.92388 -0.16604
vn -0.29919 0.92388 -0.23860
vn -0.23860 0.92388 -0.29919
vn -0.16604 0.92388 -0.34479
vn -0.08516 0.92388 -0.37309
vn -0.00000 0.92388 -0.38268
vn 0.08516 0.92388 -0.37309
vn 0.16604 0.92388 -0.34479
vn 0.23860 0.92388 -0.29919
vn 0.29919 0.92388 -0.23860
vn 0.34479 0.92388 -0.16604
vn 0.37309 0.92388 -0.08516
vn 0.55557 0.83147 0.00000
vn 0.54164 0.83147 0.12363
vn 0.50055 0.83147 0.24105
vn 0.43436 0.83147 0.34639
vn 0.34639 0.83147 0.43436
vn 0.24105 0.83147 0.50055
vn 0.12363 0.83147 0.54164
vn 0.00000 0.83147 0.55557
vn -0.12363 0.83147 0.54164
vn -0.24105 0.83147 0.50055
vn -0.34639 0.83147 0.43436
vn -0.43436 0.83147 0.34639
vn -0.50055 0.83147 0.24105
vn -0.54164 0.83147 0.12363
vn -0.55557 0.83147 0.00000
vn -0.54164 0.83147 -0.12363
vn -0.50055 0.83147 -0.24105
vn -0.43436 0.83147 -0.34639
vn -0.34639 0.83147 -0.43436
vn -0.24105 0.83147 -0.50055
vn -0.12363 0.83147 -0.54164
vn -0.00000 0.83147 -0.55557
vn 0.12363 0.83147 -0.54164
vn 0.24105 0.83147 -0.50055
vn 0.34639 0.83147 -0.43436
vn 0.43436 0.83147 -0.34639
vn 0.50055 0.83147 -0.24105
vn 0.54164 0.83147 -0.12363
vn 0.70711 0.70711 0.00000
vn 0.68938 0.70711 0.15735
vn 0.63708 0.70711 0.30680
vn 0.55284 0.70711 0.44087
vn 0.44087 0.70711 0.55284
vn 0.30680 0.70711 0.63708
vn 0.15735 0.70711 0.68938
vn 0.00000 0.70711 0.70711
vn -0.15735 0.70711 0.68938
vn -0.30680 0.70711 0.63708
vn -0.44087 0.70711 0.55284
vn -0.55284 0.70711 0.44087
vn -0.63708 0.70711 0.30680
vn -0.68938 0.70711 0.15735
vn -0.70711 0.70711 0.00000
vn -0.68938 0.70711 -0.15735
vn -0.63708 0.70711 -0.30680
vn -0.55284 0.70711 -0.44087
vn -0.44087 0.70711 -0.55284
vn -0.30680 0.70711 -0.63708
vn -0.15735 0.70711 -0.68938
vn -0.00000 0.70711 -0.70711
vn 0.15735 0.70711 -0.68938
vn 0.30680 0.70711 -0.63708
vn 0.44087 0.70711 -0.55284
vn 0.55284 0.70711 -0.44087
vn 0.63708 0.70711 -0.30680
vn 0.68938 0.70711 -0.15735
vn 0.83147 0.55557 0.00000
vn 0.81062 0.55557 0.18502
vn 0.74913 0.55557 0.36076
vn 0.65007 0.55557 0.51841
vn 0.51841 0.55557 0.65007
vn 0.36076 0.55557 0.74913
vn 0.18502 0.55557 0.81062
vn 0.00000 0.55557 0.83147
vn -0.18502 0.55557 0.81062
vn -0.36076 0.55557 0.74913
vn -0.51841 0.55557 0.65007
vn -0.65007 0.55557 0.51841
vn -0.74913 0.55557 0.36076
vn -0.81062 0.55557 0.18502
vn -0.83147 0.55557 0.00000
vn -0.81062 0.55557 -0.18502
vn -0.74913 0.55557 -0.36076
vn -0.65007 0.55557 -0.51841
vn -0.51841 0.55557 -0.65007
vn -0.36076 0.55557 -0.74913
vn -0.18502 0.55557 -0.81062
vn -0.00000 0.55557 -0.83147
vn 0.18502 0.55557 -0.81062
vn 0.36076 0.55557 -0.74913
vn 0.51841 0.55557 -0.65007
vn 0.65007 0.55557 -0.51841
vn 0.74913 0.55557 -0.36076
vn 0.81062 0.55557 -0.18502
vn 0.92388 0.38268 0.00000
vn 0.90072 0.38268 0.20558
vn 0.83239 0.38268 0.40086
vn 0.72232 0.38268 0.57603
vn 0.57603 0.38268 0.72232
vn 0.40086 0.38268 0.83239
vn 0.20558 0.38268 0.90072
vn 0.00000 0.38268 0.92388
vn -0.20558 0.38268 0.90072
vn -0.40086 0.38268 0.83239
vn -0.57603 0.38268 0.72232
vn -0.72232 0.38268 0.57603
vn -0.83239 0.38268 0.40086
vn -0.90072 0.38268 0.20558
vn -0.92388 0.38268 0.00000
vn -0.90072 0.38268 -0.20558
vn -0.83239 0.38268 -0.40086
vn -0.72232 0.38268 -0.57603
vn -0.57603 0.38268 -0.72232
vn -0.40086 0.38268 -0.83239
vn -0.20558 0.38268 -0.90072
vn -0.00000 0.38268 -0.92388
vn 0.20558 0.38268 -0.90072
vn 0.40086 0.38268 -0.83239
vn 0.57603 0.38268 -0.72232
vn 0.72232 0.38268 -0.57603
vn 0.83239 0.38268 -0.40086
vn 0.90072 0.38268 -0.20558
vn 0.98079 0.19509 0.00000
vn 0.95619 0.19509 0.21825
vn 0.88366 0.19509 0.42555
vn 0.76681 0.19509 0.61151
vn 0.61151 0.19509 0.76681
vn 0.42555 0.19509 0.88366
vn 0.21825 0.19509 0.95619
vn 0.00000 0.19509 0.98079
vn -0.21825 0.19509 0.95619
vn -0.42555 0.19509 0.88366
vn -0.61151 0.19509 0.76681
vn -0.76681 0.19509 0.61151
vn -0.88366 0.19509 0.42555
vn -0.95619 0.19509 0.21825
vn -0.98079 0.19509 0.00000
vn -0.95619 0.19509 -0.21825
vn -0.88366 0.19509 -0.42555
vn -0.76681 0.19509 -0.61151
vn -0.61151 0.19509 -0.76681
vn -0.42555 0.19509 -0.88366
vn -0.21825 0.19509 -0.95619
vn -0.00000 0.19509 -0.98079
vn 0.21825 0.19509 -0.95619
vn 0.42555 0.19509 -0.88366
vn 0.61151 0.19509 -0.76681
vn 0.76681 0.19509 -0.61151
vn 0.88366 0.19509 -0.42555
vn 0.95619 0.19509 -0.21825
vn 1.00000 0.00000 0.00000
vn 0.97493 0.00000 0.22252
vn 0.90097 0.00000 0.43388
vn 0.78183 0.00000 0.62349
vn 0.62349 0.00000 0.78183
vn 0.43388 0.00000 0.90097
vn 0.22252 0.00000 0.97493
vn 0.00000 0.00000 1.00000
vn -0.22252 0.00000 0.97493
vn -0.43388 0.00000 0.90097
vn -0.62349 0.00000 0.78183
vn -0.78183 0.00000 0.62349
vn -0.90097 0.00000 0.43388
vn -0.97493 0.00000 0.22252
vn -1.00000 0.00000 0.00000
vn -0.97493 0.00000 -0.22252
vn -0.90097 0.00000 -0.43388
vn -0.78183 0.00000 -0.62349
vn -0.62349 0.00000 -0.78183
vn -0.43388 0.00000 -0.90097
vn -0.22252 0.00000 -0.97493
vn -0.00000 0.00000 -1.00000
vn 0.22252 0.00000 -0.97493
vn 0.43388 0.00000 -0.90097
vn 0.62349 0.00000 -0.78183
vn 0.78183 0.00000 -0.62349
vn 0.90097 0.00000 -0.43388
vn 0.97493 0.00000 -0.22252
vn 0.98079 -0.19509 0.00000
vn 0.95619 -0.19509 0.21825
vn 0.88366 -0.19509 0.42555
vn 0.76681 -0.19509 0.61151
vn 0.61151 -0.19509 0.76681
vn 0.42555 -0.19509 0.88366
vn 0.21825 -0.19509 0.95619
vn 0.00000 -0.19509 0.98079
vn -0.21825 -0.19509 0.95619
vn -0.42555 -0.19509 0.88366
vn -0.61151 -0.19509 0.76681
vn -0.76681 -0.19509 0.61151
vn -0.88366 -0.19509 0.42555
vn -0.95619 -0.19509 0.21825
vn -0.98079 -0.19509 0.00000
vn -0.95619 -0.19509 -0.21825
vn -0.88366 -0.19509 -0.42555
vn -0.76681 -0.19509 -0.61151
vn -0.61151 -0.19509 -0.76681
vn -0.42555 -0.19509 -0.88366
vn -0.21825 -0.19509 -0.95619
vn -0.00000 -0.19509 -0.98079
vn 0.21825 -0.19509 -0.95619
vn 0.42555 -0.19509 -0.88366
vn 0.61151 -0.19509 -0.76681
vn 0.76681 -0.19509 -0.61151
vn 0.88366 -0.19509 -0.42555
vn 0.95619 -0.19509 -0.21825
vn 0.92388 -0.38268 0.00000
vn 0.90072 -0.38268 0.20558
vn 0.83239 -0.38268 0.40086
vn 0.72232 -0.38268 0.57603
vn 0.57603 -0.38268 0.72232
vn 0.40086 -0.38268 0.83239
vn 0.20558 -0.38268 0.90072
vn 0.00000 -0.38268 0.92388
vn -0.20558 -0.38268 0.90072
vn -0.40086 -0.38268 0.83239
vn -0.57603 -0.38268 0.72232
vn -0.72232 -0.38268 0.57603
vn -0.83239 -0.38268 0.40086
vn -0.90072 -0.38268 0.20558
vn -0.92388 -0.38268 0.00000
vn -0.90072 -0.38268 -0.20558
vn -0.83239 -0.38268 -0.40086
vn -0.72232 -0.38268 -0.57603
vn -0.57603 -0.38268 -0.72232
vn -0.40086 -0.38268 -0.83239
vn -0.20558 -0.38268 -0.90072
vn -0.00000 -0.38268 -0.92388
vn 0.20558 -0.38268 -0.90072
vn 0.40086 -0.38268 -0.83239
vn 0.57603 -0.38268 -0.72232
vn 0.72232 -0.38268 -0.57603
vn 0.83239 -0.38268 -0.40086
vn 0.90072 -0.38268 -0.20558
vn 0.83147 -0.55557 0.00000
vn 0.81062 -0.55557 0.18502
vn 0.74913 -0.55557 0.36076
vn 0.65007 -0.55557 0.51841
vn 0.51841 -0.55557 0.65007
vn 0.36076 -0.55557 0.74913
vn 0.18502 -0.55557 0.81062
vn 0.00000 -0.55557 0.83147
vn -0.18502 -0.55557 0.81062
vn -0.36076 -0.55557 0.74913
vn -0.51841 -0.55557 0.65007
vn -0.65007 -0.55557 0.51841
vn -0.74913 -0.55557 0.36076
vn -0.81062 -0.55557 0.18502
vn -0.83147 -0.55557 0.00000
vn -0.81062 -0.55557 -0.18502
vn -0.74913 -0.55557 -0.36076
vn -0.65007 -0.55557 -0.51841
vn -0.51841 -0.55557 -0.65007
vn -0.36076 -0.55557 -0.74913
vn -0.18502 -0.55557 -0.81062
vn -0.00000 -0.55557 -0.83147
vn 0.18502 -0.55557 -0.81062
vn 0.36076 -0.55557 -0.74913
vn 0.51841 -0.55557 -0.65007
vn 0.65007 -0.55557 -0.51841
vn 0.74913 -0.55557 -0.36076
vn 0.81062 -0.55557 -0.18502
vn 0.70711 -0.70711 0.00000
vn 0.68938 -0.70711 0.15735
vn 0.63708 -0.70711 0.30680
vn 0.55284 -0.70711 0.44087
vn 0.44087 -0.70711 0.55284
vn 0.30680 -0.70711 0.63708
vn 0.15735 -0.70711 0.68938
vn 0.00000 -0.70711 0.70711
vn -0.15735 -0.70711 0.68938
vn -0.30680 -0.70711 0.63708
vn -0.44087 -0.70711 0.55284
vn -0.55284 -0.70711 0.44087
vn -0.63708 -0.70711 0.30680
vn -0.68938 -0.70711 0.15735
vn -0.70711 -0.70711 0.00000
vn -0.68938 -0.70711 -0.15735
vn -0.63708 -0.70711 -0.30680
vn -0.55284 -0.70711 -0.44087
vn -0.44087 -0.70711 -0.55284
vn -0.30680 -0.70711 -0.63708
vn -0.15735 -0.70711 -0.68938
vn -0.00000 -0.70711 -0.70711
vn 0.15735 -0.70711 -0.68938
vn 0.30680 -0.70711 -0.63708
vn 0.44087 -0.70711 -0.55284
vn 0.55284 -0.70711 -0.44087
vn 0.63708 -0.70711 -0.30680
vn 0.68938 -0.70711 -0.15735
vn 0.55557 -0.83147 0.00000
vn 0.54164 -0.83147 0.12363
vn 0.50055 -0.83147 0.24105
vn 0.43436 -0.83147 0.34639
vn 0.34639 -0.83147 0.43436
vn 0.24105 -0.83147 0.50055
vn 0.12363 -0.83147 0.54164
vn 0.00000 -0.83147 0.55557
vn -0.12363 -0.83147 0.54164
vn -0.24105 -0.83147 0.50055
vn -0.34639 -0.83147 0.43436
vn -0.43436 -0.83147 0.34639
vn -0.50055 -0.83147 0.24105
vn -0.54164 -0.83147 0.12363
vn -0.55557 -0.83147 0.00000
vn -0.54164 -0.83147 -0.12363
vn -0.50055 -0.83147 -0.24105
vn -0.43436 -0.83147 -0.34639
vn -0.34639 -0.83147 -0.43436
vn -0.24105 -0.83147 -0.50055
vn -0.12363 -0.83147 -0.54164
vn -0.00000 -0.83147 -0.55557
vn 0.12363 -0.83147 -0.54164
vn 0.24105 -0.83147 -0.50055
vn 0.34639 -0.83147 -0.43436
vn 0.43436 -0.83147 -0.34639
vn 0.50055 -0.83147 -0.24105
vn 0.54164 -0.83147 -0.12363
vn 0.38268 -0.92388 0.00000
vn 0.37309 -0.92388 0.08516
vn 0.34479 -0.92388 0.16604
vn 0.29919 -0.92388 0.23860
vn 0.23860 -0.92388 0.29919
vn 0.16604 -0.92388 0.34479
vn 0.08516 -0.92388 0.37309
vn 0.00000 -0.92388 0.38268
vn -0.08516 -0.92388 0.37309
vn -0.16604 -0.92388 0.34479
vn -0.23860 -0.92388 0.29919
vn -0.29919 -0.92388 0.23860
vn -0.34479 -0.92388 0.16604
vn -0.37309 -0.92388 0.08516
vn -0.38268 -0.92388 0.00000
vn -0.37309 -0.92388 -0.08516
vn -0.34479 -0.92388 -0.16604
vn -0.29919 -0.92388 -0.23860
vn -0.23860 -0.92388 -0.29919
vn -0.16604 -0.92388 -0.34479
vn -0.08516 -0.92388 -0.37309
vn -0.00000 -0.92388 -0.38268
vn 0.08516 -0.92388 -0.37309
vn 0.16604 -0.92388 -0.34479
vn 0.23860 -0.92388 -0.29919
vn 0.29919 -0.92388 -0.23860
vn 0.34479 -0.92388 -0.16604
vn 0.37309 -0.92388 -0.08516
vn 0.19509 -0.98079 0.00000
vn 0.19020 -0.98079 0.04341
vn 0.17577 -0.98079 0.08465
vn 0.15253 -0.98079 0.12164
vn 0.12164 -0.98079 0.15253
vn 0.08465 -0.98079 0.17577
vn 0.04341 -0.98079 0.19020
vn 0.00000 -0.98079 0.19509
vn -0.04341 -0.98079 0.19020
vn -0.08465 -0.98079 0.17577
vn -0.12164 -0.98079 0.15253
vn -0.15253 -0.98079 0.12164
vn -0.17577 -0.98079 0.08465
vn -0.19020 -0.98079 0.04341
vn -0.19509 -0.98079 0.00000
vn -0.19020 -0.98079 -0.04341
vn -0.17577 -0.98079 -0.08465
vn -0.15253 -0.98079 -0.12164
vn -0.12164 -0.98079 -0.15253
vn -0.08465 -0.98079 -0.17577
vn -0.04341 -0.98079 -0.19020
vn -0.00000 -0.98079 -0.19509
vn 0.04341 -0.98079 -0.19020
vn 0.08465 -0.98079 -0.17577
vn 0.12164 -0.98079 -0.15253
vn 0.15253 -0.98079 -0.12164
vn 0.17577 -0.98079 -0.08465
vn 0.19020 -0.98079 -0.04341
vn 0.00000 -1.00000 0.00000
vn 0.00000 -1.00000 0.00000
vn 0.00000 -1.00000 0.00000
vn 0.00000 -1.00000 0.00000
vn 0.00000 -1.00000 0.00000
vn 0.00000 -1.00000 0.00000
vn 0.00000 -1.00000 0.00000
vn 0.00000 -1.00000 0.00000
vn -0.00000 -1.00000 0.00000
vn -0.00000 -1.00000 0.00000
vn -0.00000 -1.00000 0.00000
vn -0.00000 -1.00000 0.00000
vn -0.00000 -1.00000 0.00000
vn -0.00000 -1.00000 0.00000
vn -0.00000 -1.00000 0.00000
vn -0.00000 -1.00000 -0.00000
vn -0.00000 -1.00000 -0.00000
vn -0.00000 -1.00000 -0.00000
vn -0.00000 -1.00000 -0.00000
vn -0.00000 -1.00000 -0.00000
vn -0.00000 -1.00000 -0.00000
vn -0.00000 -1.00000 -0.00000
vn 0.00000 -1.00000 -0.00000
vn 0.00000 -1.00000 -0.00000
vn 0.00000 -1.00000 -0.00000
vn 0.00000 -1.00000 -0.00000
vn 0.00000 -1.00000 -0.00000
vn 0.00000 -1.00000 -0.00000
usemtl white
f 1 2 3
f 1 3 4
f 5 6 7
f 5 7 8
f 9 10 11
f 9 11 12
usemtl red
f 13 14 15
f 13 15 16
usemtl green
f 17 18 19
f 17 19 20
usemtl light
f 21 22 23
f 21 23 24
usemtl mirror
f 25 26 27
f 25 27 28
f 29 30 31
f 29 31 32
f 33 34 35
f 33 35 36
f 37 38 39
f 37 39 40
f 41 42 43
f 41 43 44
f 45 46 47
f 45 47 48
usemtl white
f 49 50 51
f 49 51 52
f 53 54 55
f 53 55 56
f 57 58 59
f 57 59 60
f 61 62 63
f 61 63 64
f 65 66 67
f 65 67 68
f 69 70 71
f 69 71 72
usemtl glass
f 74//2 102//30 101//29
f 75//3 103//31 102//30
f 76//4 104//32 103//31
f 77//5 105//33 104//32
f 78//6 106//34 105//33
f 79//7 107//35 106//34
f 80//8 108//36 107//35
f 81//9 109//37 108//36
f 82//10 110//38 109//37
f 83//11 111//39 110//38
f 84//12 112//40 111//39
f 85//13 113//41 112//40
f 86//14 114//42 113//41
f 87//15 115//43 114//42
f 88//16 116//44 115//43
f 89//17 117//45 116//44
f 90//18 118//46 117//45
f 91//19 119//47 118//46
f 92//20 120//48 119//47
f 93//21 121//49 120//48
f 94//22 122//50 121//49
f 95//23 123//51 122//50
f 96//24 124//52 123//51
f 97//25 125//53 124//52
f 98//26 126//54 125//53
f 99//27 127//55 126//54
f 100//28 128//56 127//55
f 73//1 101//29 128//56
f 101//29 102//30 129//57
f 102//30 130//58 129//57
f 102//30 103//31 130//58
f 103//31 131//59 130//58
f 103//31 104//32 131//59
f 104//32 132//60 131//59
f 104//32 105//33 132//60
f 105//33 133//61 132//60
f 105//33 106//34 133//61
f 106//34 134//62 133//61
f 106//34 107//35 134//62
f 107//35 135//63 134//62
f 107//35 108//36 135//63
f 108//36 136//64 135//63
f 108//36 109//37 136//64
f 109//37 137//65 136//64
f 109//37 110//38 137//65
f 110//38 138//66 137//65
f 110//38 111//39 138//66
f 111//39 139//67 138//66
f 111//39 112//40 139//67
f 112//40 140//68 139//67
f 112//40 113//41 140//68
f 113//41 141//69 140//68
f 113//41 114//42 141//69
f 114//42 142//70 141//69
f 114//42 115//43 142//70
f 115//43 143//71 142//70
f 115//43 116//44 143//71
f 116//44 144//72 143//71
f 116//44 117//45 144//72
f 117//45 145//73 144//72
f 117//45 118//46 145//73
f 118//46 146//74 145//73
f 118//46 119//47 146//74
f 119//47 147//75 146//74
f 119//47 120//48 147//75
f 120//48 148//76 147//75
f 120//48 121//49 148//76
f 121//49 149//77 148//76
f 121//49 122//50 149//77
f 122//50 150//78 149//77
f 122//50 123//51 150//78
f 123//51 151//79 150//78
f 123//51 124//52 151//79
f 124//52 152//80 151//79
f 124//52 125//53 152//80
f 125//53 153//81 152//80
f 125//53 126//54 153//81
f 126//54 154//82 153//81
f 126//54 127//55 154//82
f 127//55 155//83 154//82
f 127//55 128//56 155//83
f 128//56 156//84 155//83
f 128//56 101//29 156//84
f 101//29 129//57 156//84
f 129//57 130//58 157//85
f 130//58 158//86 157//85
f 130//58 131//59 158//86
f 131//59 159//87 158//86
f 131//59 132//60 159//87
f 132//60 160//88 159//87
f 132//60 133//61 160//88
f 133//61 161//89 160//88
f 133//61 134//62 161//89
f 134//62 162//90 161//89
f 134//62 135//63 162//90
f 135//63 163//91 162//90
f 135//63 136//64 163//91
f 136//64 164//92 163//91
f 136//64 137//65 164//92
f 137//65 165//93 164//92
f 137//65 138//66 165//93
f 138//66 166//94 165//93
f 138//66 139//67 166//94
f 139//67 167//95 166//94
f 139//67 140//68 167//95
f 140//68 168//96 167//95
f 140//68 141//69 168//96
f 141//69 169//97 168//96
f 141//69 142//70 169//97
f 142//70 170//98 169//97
f 142//70 143//71 170//98
f 143//71 171//99 170//98
f 143//71 144//72 171//99
f 144//72 172//100 171//99
f 144//72 145//73 172//100
f 145//73 173//101 172//100
f 145//73 146//74 173//101
f 146//74 174//102 173//101
f 146//74 147//75 174//102
f 147//75 175//103 174//102
f 147//75 148//76 175//103
f 148//76 176//104 175//103
f 148//76 149//77 176//104
f 149//77 177//105 176//104
f 149//77 150//78 177//105
f 150//78 178//106 177//105
f 150//78 151//79 178//106
f 151//79 179//107 178//106
f 151//79 152//80 179//107
f 152//80 180//108 179//107
f 152//80 153//81 180//108
f 153//81 181//109 180//108
f 153//81 154//82 181//109
f 154//82 182//110 181//109
f 154//82 155//83 182//110
f 155//83 183//111 182//110
f 155//83 156//84 183//111
f 156//84 184//112 183//111
f 156//84 129//57 184//112
f 129//57 157//85 184//112
f 157//85 158//86 185//113
f 158//86 186//114 185//113
f 158//86 159//87 186//114
f 159//87 187//115 186//114
f 159//87 160//88 187//115
f 160//88 188//116 187//115
f 160//88 161//89 188//116
f 161//89 189//117 188//116
f 161//89 162//90 189//117
f 162//90 190//118 189//117
f 162//90 163//91 190//118
f 163//91 191//119 190//118
f 163//91 164//92 191//119
f 164//92 192//120 191//119
f 164//92 165//93 192//120
f 165//93 193//121 192//120
f 165//93 166//94 193//121
f 166//94 194//122 193//121
f 166//94 167//95 194//122
f 167//95 195//123 194//122
f 167//95 168//96 195//123
f 168//96 196//124 195//123
f 168//96 169//97 196//124
f 169//97 197//125 196//124
f 169//97 170//98 197//125
f 170//98 198//126 197//125
f 170//98 171//99 198//126
f 171//99 199//127 198//126
f 171//99 172//100 199//127
f 172//100 200//128 199//127
f 172//100 173//101 200//128
f 173//101 201//129 200//128
f 173//101 174//102 201//129
f 174//102 202//130 201//129
f 174//102 175//103 202//130
f 175//103 203//131 202//130
f 175//103 176//104 203//131
f 176//104 204//132 203//131
f 176//104 177//105 204//132
f 177//105 205//133 204//132
f 177//105 178//106 205//133
f 178//106 206//134 205//133
f 178//106 179//107 206//134
f 179//107 207//135 206//134
f 179//107 180//108 207//135
f 180//108 208//136 207//135
f 180//108 181//109 208//136
f 181//109 209//137 208//136
f 181//109 182//110 209//137
f 182//110 210//138 209//137
f 182//110 183//111 210//138
f 183//111 211//139 210//138
f 183//111 184//112 211//139
f 184//112 212//140 211//139
f 184//112 157//85 212//140
f 157//85 185//113 212//140
f 185//113 186//114 213//141
f 186//114 214//142 213//141
f 186//114 187//115 214//142
f 187//115 215//143 214//142
f 187//115 188//116 215//143
f 188//116 216//144 215//143
f 188//116 189//117 216//144
f 189//117 217//145 216//144
f 189//117 190//118 217//145
f 190//118 218//146 217//145
f 190//118 191//119 218//146
f 191//119 219//147 218//146
f 191//119 192//120 219//147
f 192//120 220//148 219//147
f 192//120 193//121 220//148
f 193//121 221//149 220//148
f 193//121 194//122 221//149
f 194//122 222//150 221//149
f 194//122 195//123 222//150
f 195//123 223//151 222//150
f 195//123 196//124 223//151
f 196//124 224//152 223//151
f 196//124 197//125 224//152
f 197//125 225//153 224//152
f 197//125 198//126 225//153
f 198//126 226//154 225//153
f 198//126 199//127 226//154
f 199//127 227//155 226//154
f 199//127 200//128 227//155
f 200//128 228//156 227//155
f 200//128 201//129 228//156
f 201//129 229//157 228//156
f 201//129 202//130 229//157
f 202//130 230//158 229//157
f 202//130 203//131 230//158
f 203//131 231//159 230//158
f 203//131 204//132 231//159
f 204//132 232//160 231//159
f 204//132 205//133 232//160
f 205//133 233//161 232//160
f 205//133 206//134 233//161
f 206//134 234//162 233//161
f 206//134 207//135 234//162
f 207//135 235//163 234//162
f 207//135 208//136 235//163
f 208//136 236//164 235//163
f 208//136 209//137 236//164
f 209//137 237//165 236//164
f 209//137 210//138 237//165
f 210//138 238//166 237//165
f 210//138 211//139 238//166
f 211//139 239//167 238//166
f 211//139 212//140 239//167
f 212//140 240//168 239//167
f 212//140 185//113 240//168
f 185//113 213//141 240//168
f 213//141 214//142 241//169
f 214//142 242//170 241//169
f 214//142 215//143 242//170
f 215//143 243//171 242//170
f 215//143 216//144 243//171
f 216//144 244//172 243//171
f 216//144 217//145 244//172
f 217//145 245//173 244//172
f 217//145 218//146 245//173
f 218//146 246//174 245//173
f 218//146 219//147 246//174
f 219//147 247//175 246//174
f 219//147 220//148 247//175
f 220//148 248//176 247//175
f 220//148 221//149 248//176
f 221//149 249//177 248//176
f 221//149 222//150 249//177
f 222//150 250//178 249//177
f 222//150 223//151 250//178
f 223//151 251//179 250//178
f 223//151 224//152 251//179
f 224//152 252//180 251//179
f 224//152 225//153 252//180
f 225//153 253//181 252//180
f 225//153 226//154 253//181
f 226//154 254//182 253//181
f 226//154 227//155 254//182
f 227//155 255//183 254//182
f 227//155 228//156 255//183
f 228//156 256//184 255//183
f 228//156 229//157 256//184
f 229//157 257//185 256//184
f 229//157 230//158 257//185
f 230//158 258//186 257//185
f 230//158 231//159 258//186
f 231//159 259//187 258//186
f 231//159 232//160 259//187
f 232//160 260//188 259//187
f 232//160 233//161 260//188
f 233//161 261//189 260//188
f 233//161 234//162 261//189
f 234//162 262//190 261//189
f 234//162 235//163 262//190
f 235//163 263//191 262//190
f 235//163 236//164 263//191
f 236//164 264//192 263//191
f 236//164 237//165 264//192
f 237//165 265//193 264//192
f 237//165 238//166 265//193
f 238//166 266//194 265//193
f 238//166 239//167 266//194
f 239//167 267//195 266//194
f 239//167 240//168 267//195
f 240//168 268//196 267//195
f 240//168 213//141 268//196
f 213//141 241//169 268//196
f 241//169 242//170 269//197
f 242//170 270//198 269//197
f 242//170 243//171 270//198
f 243//171 271//199 270//198
f 243//171 244//172 271//199
f 244//172 272//200 271//199
f 244//172 245//173 272//200
f 245//173 273//201 272//200
f 245//173 246//174 273//201
f 246//174 274//202 273//201
f 246//174 247//175 274//202
f 247//175 275//203 274//202
f 247//175 248//176 275//203
f 248//176 276//204 275//203
f 248//176 249//177 276//204
f 249//177 277//205 276//204
f 249//177 250//178 277//205
f 250//178 278//206 277//205
f 250//178 251//179 278//206
f 251//179 279//207 278//206
f 251//179 252//180 279//207
f 252//180 280//208 279//207
f 252//180 253//181 280//208
f 253//181 281//209 280//208
f 253//181 254//182 281//209
f 254//182 282//210 281//209
f 254//182 255//183 282//210
f 255//183 283//211 282//210
f 255//183 256//184 283//211
f 256//184 284//212 283//211
f 256//184 257//185 284//212
f 257//185 285//213 284//212
f 257//185 258//186 285//213
f 258//186 286//214 285//213
f 258//186 259//187 286//214
f 259//187 287//215 286//214
f 259//187 260//188 287//215
f 260//188 288//216 287//215
f 260//188 261//189 288//216
f 261//189 289//217 288//216
f 261//189 262//190 289//217
f 262//190 290//218 289//217
f 262//190 263//191 290//218
f 263//191 291//219 290//218
f 263//191 264//192 291//219
f 264//192 292//220 291//219
f 264//192 265//193 292//220
f 265//193 293//221 292//220
f 265//193 266//194 293//221
f 266//194 294//222 293//221
f 266//194 267//195 294//222
f 267//195 295//223 294//222
f 267//195 268//196 295//223
f 268//196 296//224 295//223
f 268//196 241//169 296//224
f 241//169 269//197 296//224
f 269//197 270//198 297//225
f 270//198 298//226 297//225
f 270//198 271//199 298//226
f 271//199 299//227 298//226
f 271//199 272//200 299//227
f 272//200 300//228 299//227
f 272//200 273//201 300//228
f 273//201 301//229 300//228
f 273//201 274//202 301//229
f 274//202 302//230 301//229
f 274//202 275//203 302//230
f 275//203 303//231 302//230
f 275//203 276//204 303//231
f 276//204 304//232 303//231
f 276//204 277//205 304//232
f 277//205 305//233 304//232
f 277//205 278//206 305//233
f 278//206 306//234 305//233
f 278//206 279//207 306//234
f 279//207 307//235 306//234
f 279//207 280//208 307//235
f 280//208 308//236 307//235
f 280//208 281//209 308//236
f 281//209 309//237 308//236
f 281//209 282//210 309//237
f 282//210 310//238 309//237
f 282//210 283//211 310//238
f 283//211 311//239 310//238
f 283//211 284//212 311//239
f 284//212 312//240 311//239
f 284//212 285//213 312//240
f 285//213 313//241 312//240
f 285//213 286//214 313//241
f 286//214 314//242 313//241
f 286//214 287//215 314//242
f 287//215 315//243 314//242
f 287//215 288//216 315//243
f 288//216 316//244 315//243
f 288//216 289//217 316//244
f 289//217 317//245 316//244
f 289//217 290//218 317//245
f 290//218 318//246 317//245
f 290//218 291//219 318//246
f 291//219 319//247 318//246
f 291//219 292//220 319//247
f 292//220 320//248 319//247
f 292//220 293//221 320//248
f 293//221 321//249 320//248
f 293//221 294//222 321//249
f 294//222 322//250 321//249
f 294//222 295//223 322//250
f 295//223 323//251 322//250
f 295//223 296//224 323//251
f 296//224 324//252 323//251
f 296//224 269//197 324//252
f 269//197 297//225 324//252
f 297//225 298//226 325//253
f 298//226 326//254 325//253
f 298//226 299//227 326//254
f 299//227 327//255 326//254
f 299//227 300//228 327//255
f 300//228 328//256 327//255
f 300//228 301//229 328//256
f 301//229 329//257 328//256
f 301//229 302//230 329//257
f 302//230 330//258 329//257
f 302//230 303//231 330//258
f 303//231 331//259 330//258
f 303//231 304//232 331//259
f 304//232 332//260 331//259
f 304//232 305//233 332//260
f 305//233 333//261 332//260
f 305//233 306//234 333//261
f 306//234 334//262 333//261
f 306//234 307//235 334//262
f 307//235 335//263 334//262
f 307//235 308//236 335//263
f 308//236 336//264 335//263
f 308//236 309//237 336//264
f 309//237 337//265 336//264
f 309//237 310//238 337//265
f 310//238 338//266 337//265
f 310//238 311//239 338//266
f 311//239 339//267 338//266
f 311//239 312//240 339//267
f 312//240 340//268 339//267
f 312//240 313//241 340//268
f 313//241 341//269 340//268
f 313//241 314//242 341//269
f 314//242 342//270 341//269
f 314//242 315//243 342//270
f 315//243 343//271 342//270
f 315//243 316//244 343//271
f 316//244 344//272 343//271
f 316//244 317//245 344//272
f 317//245 345//273 344//272
f 317//245 318//246 345//273
f 318//246 346//274 345//273
f 318//246 319//247 346//274
f 319//247 347//275 346//274
f 319//247 320//248 347//275
f 320//248 348//276 347//275
f 320//248 321//249 348//276
f 321//249 349//277 348//276
f 321//249 322//250 349//277
f 322//250 350//278 349//277
f 322//250 323//251 350//278
f 323//251 351//279 350//278
f 323//251 324//252 351//279
f 324//252 352//280 351//279
f 324//252 297//225 352//280
f 297//225 325//253 352//280
f 325//253 326//254 353//281
f 326//254 354//282 353//281
f 326//254 327//255 354//282
f 327//255 355//283 354//282
f 327//255 328//256 355//283
f 328//256 356//284 355//283
f 328//256 329//257 356//284
f 329//257 357//285 356//284
f 329//257 330//258 357//285
f 330//258 358//286 357//285
f 330//258 331//259 358//286
f 331//259 359//287 358//286
f 331//259 332//260 359//287
f 332//260 360//288 359//287
f 332//260 333//261 360//288
f 333//261 361//289 360//288
f 333//261 334//262 361//289
f 334//262 362//290 361//289
f 334//262 335//263 362//290
f 335//263 363//291 362//290
f 335//263 336//264 363//291
f 336//264 364//292 363//291
f 336//264 337//265 364//292
f 337//265 365//293 364//292
f 337//265 338//266 365//293
f 338//266 366//294 365//293
f 338//266 339//267 366//294
f 339//267 367//295 366//294
f 339//267 340//268 367//295
f 340//268 368//296 367//295
f 340//268 341//269 368//296
f 341//269 369//297 368//296
f 341//269 342//270 369//297
f 342//270 370//298 369//297
f 342//270 343//271 370//298
f 343//271 371//299 370//298
f 343//271 344//272 371//299
f 344//272 372//300 371//299
f 344//272 345//273 372//300
f 345//273 373//301 372//300
f 345//273 346//274 373//301
f 346//274 374//302 373//301
f 346//274 347//275 374//302
f 347//275 375//303 374//302
f 347//275 348//276 375//303
f 348//276 376//304 375//303
f 348//276 349//277 376//304
f 349//277 377//305 376//304
f 349//277 350//278 377//305
f 350//278 378//306 377//305
f 350//278 351//279 378//306
f 351//279 379//307 378//306
f 351//279 352//280 379//307
f 352//280 380//308 379//307
f 352//280 325//253 380//308
f 325//253 353//281 380//308
f 353//281 354//282 381//309
f 354//282 382//310 381//309
f 354//282 355//283 382//310
f 355//283 383//311 382//310
f 355//283 356//284 383//311
f 356//284 384//312 383//311
f 356//284 357//285 384//312
f 357//285 385//313 384//312
f 357//285 358//286 385//313
f 358//286 386//314 385//313
f 358//286 359//287 386//314
f 359//287 387//315 386//314
f 359//287 360//288 387//315
f 360//288 388//316 387//315
f 360//288 361//289 388//316
f 361//289 389//317 388//316
f 361//289 362//290 389//317
f 362//290 390//318 389//317
f 362//290 363//291 390//318
f 363//291 391//319 390//318
f 363//291 364//292 391//319
f 364//292 392//320 391//319
f 364//292 365//293 392//320
f 365//293 393//321 392//320
f 365//293 366//294 393//321
f 366//294 394//322 393//321
f 366//294 367//295 394//322
f 367//295 395//323 394//322
f 367//295 368//296 395//323
f 368//296 396//324 395//323
f 368//296 369//297 396//324
f 369//297 397//325 396//324
f 369//297 370//298 397//325
f 370//298 398//326 397//325
f 370//298 371//299 398//326
f 371//299 399//327 398//326
f 371//299 372//300 399//327
f 372//300 400//328 399//327
f 372//300 373//301 400//328
f 373//301 401//329 400//328
f 373//301 374//302 401//329
f 374//302 402//330 401//329
f 374//302 375//303 402//330
f 375//303 403//331 402//330
f 375//303 376//304 403//331
f 376//304 404//332 403//331
f 376//304 377//305 404//332
f 377//305 405//333 404//332
f 377//305 378//306 405//333
f 378//306 406//334 405//333
f 378//306 379//307 406//334
f 379//307 407//335 406//334
f 379//307 380//308 407//335
f 380//308 408//336 407//335
f 380//308 353//281 408//336
f 353//281 381//309 408//336
f 381//309 382//310 409//337
f 382//310 410//338 409//337
f 382//310 383//311 410//338
f 383//311 411//339 410//338
f 383//311 384//312 411//339
f 384//312 412//340 411//339
f 384//312 385//313 412//340
f 385//313 413//341 412//340
f 385//313 386//314 413//341
f 386//314 414//342 413//341
f 386//314 387//315 414//342
f 387//315 415//343 414//342
f 387//315 388//316 415//343
f 388//316 416//344 415//343
f 388//316 389//317 416//344
f 389//317 417//345 416//344
f 389//317 390//318 417//345
f 390//318 418//346 417//345
f 390//318 391//319 418//346
f 391//319 419//347 418//346
f 391//319 392//320 419//347
f 392//320 420//348 419//347
f 392//320 393//321 420//348
f 393//321 421//349 420//348
f 393//321 394//322 421//349
f 394//322 422//350 421//349
f 394//322 395//323 422//350
f 395//323 423//351 422//350
f 395//323 396//324 423//351
f 396//324 424//352 423//351
f 396//324 397//325 424//352
f 397//325 425//353 424//352
f 397//325 398//326 425//353
f 398//326 426//354 425//353
f 398//326 399//327 426//354
f 399//327 427//355 426//354
f 399//327 400//328 427//355
f 400//328 428//356 427//355
f 400//328 401//329 428//356
f 401//329 429//357 428//356
f 401//329 402//330 429//357
f 402//330 430//358 429//357
f 402//330 403//331 430//358
f 403//331 431//359 430//358
f 403//331 404//332 431//359
f 404//332 432//360 431//359
f 404//332 405//333 432//360
f 405//333 433//361 432//360
f 405//333 406//334 433//361
f 406//334 434//362 433//361
f 406//334 407//335 434//362
f 407//335 435//363 434//362
f 407//335 408//336 435//363
f 408//336 436//364 435//363
f 408//336 381//309 436//364
f 381//309 409//337 436//364
f 409//337 410//338 437//365
f 410//338 438//366 437//365
f 410//338 411//339 438//366
f 411//339 439//367 438//366
f 411//339 412//340 439//367
f 412//340 440//368 439//367
f 412//340 413//341 440//368
f 413//341 441//369 440//368
f 413//341 414//342 441//369
f 414//342 442//370 441//369
f 414//342 415//343 442//370
f 415//343 443//371 442//370
f 415//343 416//344 443//371
f 416//344 444//372 443//371
f 416//344 417//345 444//372
f 417//345 445//373 444//372
f 417//345 418//346 445//373
f 418//346 446//374 445//373
f 418//346 419//347 446//374
f 419//347 447//375 446//374
f 419//347 420//348 447//375
f 420//348 448//376 447//375
f 420//348 421//349 448//376
f 421//349 449//377 448//376
f 421//349 422//350 449//377
f 422//350 450//378 449//377
f 422//350 423//351 450//378
f 423//351 451//379 450//378
f 423//351 424//352 451//379
f 424//352 452//380 451//379
f 424//352 425//353 452//380
f 425//353 453//381 452//380
f 425//353 426//354 453//381
f 426//354 454//382 453//381
f 426//354 427//355 454//382
f 427//355 455//383 454//382
f 427//355 428//356 455//383
f 428//356 456//384 455//383
f 428//356 429//357 456//384
f 429//357 457//385 456//384
f 429//357 430//358 457//385
f 430//358 458//386 457//385
f 430//358 431//359 458//386
f 431//359 459//387 458//386
f 431//359 432//360 459//387
f 432//360 460//388 459//387
f 432//360 433//361 460//388
f 433//361 461//389 460//388
f 433//361 434//362 461//389
f 434//362 462//390 461//389
f 434//362 435//363 462//390
f 435//363 463//391 462//390
f 435//363 436//364 463//391
f 436//364 464//392 463//391
f 436//364 409//337 464//392
f 409//337 437//365 464//392
f 437//365 438//366 465//393
f 438//366 466//394 465//393
f 438//366 439//367 466//394
f 439//367 467//395 466//394
f 439//367 440//368 467//395
f 440//368 468//396 467//395
f 440//368 441//369 468//396
f 441//369 469//397 468//396
f 441//369 442//370 469//397
f 442//370 470//398 469//397
f 442//370 443//371 470//398
f 443//371 471//399 470//398
f 443//371 444//372 471//399
f 444//372 472//400 471//399
f 444//372 445//373 472//400
f 445//373 473//401 472//400
f 445//373 446//374 473//401
f 446//374 474//402 473//401
f 446//374 447//375 474//402
f 447//375 475//403 474//402
f 447//375 448//376 475//403
f 448//376 476//404 475//403
f 448//376 449//377 476//404
f 449//377 477//405 476//404
f 449//377 450//378 477//405
f 450//378 478//406 477//405
f 450//378 451//379 478//406
f 451//379 479//407 478//406
f 451//379 452//380 479//407
f 452//380 480//408 479//407
f 452//380 453//381 480//408
f 453//381 481//409 480//408
f 453//381 454//382 481//409
f 454//382 482//410 481//409
f 454//382 455//383 482//410
f 455//383 483//411 482//410
f 455//383 456//384 483//411
f 456//384 484//412 483//411
f 456//384 457//385 484//412
f 457//385 485//413 484//412
f 457//385 458//386 485//413
f 458//386 486//414 485//413
f 458//386 459//387 486//414
f 459//387 487//415 486//414
f 459//387 460//388 487//415
f 460//388 488//416 487//415
f 460//388 461//389 488//416
f 461//389 489//417 488//416
f 461//389 462//390 489//417
f 462//390 490//418 489//417
f 462//390 463//391 490//418
f 463//391 491//419 490//418
f 463//391 464//392 491//419
f 464//392 492//420 491//419
f 464//392 437//365 492//420
f 437//365 465//393 492//420
f 465//393 466//394 493//421
f 466//394 494//422 493//421
f 466//394 467//395 494//422
f 467//395 495//423 494//422
f 467//395 468//396 495//423
f 468//396 496//424 495//423
f 468//396 469//397 496//424
f 469//397 497//425 496//424
f 469//397 470//398 497//425
f 470//398 498//426 497//425
f 470//398 471//399 498//426
f 471//399 499//427 498//426
f 471//399 472//400 499//427
f 472//400 500//428 499//427
f 472//400 473//401 500//428
f 473//401 501//429 500//428
f 473//401 474//402 501//429
f 474//402 502//430 501//429
f 474//402 475//403 502//430
f 475//403 503//431 502//430
f 475//403 476//404 503//431
f 476//404 504//432 503//431
f 476//404 477//405 504//432
f 477//405 505//433 504//432
f 477//405 478//406 505//433
f 478//406 506//434 505//433
f 478//406 479//407 506//434
f 479//407 507//435 506//434
f 479//407 480//408 507//435
f 480//408 508//436 507//435
f 480//408 481//409 508//436
f 481//409 509//437 508//436
f 481//409 482//410 509//437
f 482//410 510//438 509//437
f 482//410 483//411 510//438
f 483//411 511//439 510//438
f 483//411 484//412 511//439
f 484//412 512//440 511//439
f 484//412 485//413 512//440
f 485//413 513//441 512//440
f 485//413 486//414 513//441
f 486//414 514//442 513//441
f 486//414 487//415 514//442
f 487//415 515//443 514//442
f 487//415 488//416 515//443
f 488//416 516//444 515//443
f 488//416 489//417 516//444
f 489//417 517//445 516//444
f 489//417 490//418 517//445
f 490//418 518//446 517//445
f 490//418 491//419 518//446
f 491//419 519//447 518//446
f 491//419 492//420 519//447
f 492//420 520//448 519//447
f 492//420 465//393 520//448
f 465//393 493//421 520//448
f 493//421 494//422 521//449
f 494//422 495//423 522//450
f 495//423 496//424 523//451
f 496//424 497//425 524//452
f 497//425 498//426 525//453
f 498//426 499//427 526//454
f 499//427 500//428 527//455
f 500//428 501//429 528//456
f 501//429 502//430 529//457
f 502//430 503//431 530//458
f 503//431 504//432 531//459
f 504//432 505//433 532//460
f 505//433 506//434 533//461
f 506//434 507//435 534//462
f 507//435 508//436 535//463
f 508//436 509//437 536//464
f 509//437 510//438 537//465
f 510//438 511//439 538//466
f 511//439 512//440 539//467
f 512//440 513//441 540//468
f 513//441 514//442 541//469
f 514//442 515//443 542//470
f 515//443 516//444 543//471
f 516//444 517//445 544//472
f 517//445 518//446 545//473
f 518//446 519//447 546//474
f 519//447 520//448 547//475
f 520//448 493//421 548//476
